<?xml version="1.0" standalone="no"?><!DOCTYPE svg PUBLIC "-//W3C//DTD SVG 1.1//EN" "http://www.w3.org/Graphics/SVG/1.1/DTD/svg11.dtd"><svg class="icon" width="200px" height="200.00px" viewBox="0 0 1024 1024" version="1.1" xmlns="http://www.w3.org/2000/svg"><path d="M1024 483.428571q0 33.142857-16.857143 60.285715T961.714286 585.142857q6.857143 26.285714 6.857143 54.857143 0 88.571429-60.857143 164T741.714286 923.142857 513.142857 966.857143t-228.285714-43.714286-165.714286-119.142857T58.285714 640q0-26.857143 6.285715-53.714286-29.142857-14.285714-46.857143-42T0 483.428571q0-46.857143 33.142857-80.285714T113.714286 369.714286q48.571429 0 82.857143 36 124.571429-86.857143 294.285714-92.571429L557.142857 15.428571q1.714286-7.428571 8.571429-12t14.857143-2.857142l210.857142 46.285714q10.285714-21.142857 30.857143-34T867.428571 0q35.428571 0 60.571429 24.857143t25.142857 60.285714-25.142857 60.571429-60.571429 25.142857-60.285714-24.857143T782.285714 85.714286l-190.857143-42.285715-59.428571 269.714286q171.428571 5.142857 296.571429 91.428572 33.142857-34.857143 81.714285-34.857143 47.428571 0 80.571429 33.428571t33.142857 80.285714zM238.857143 597.142857q0 35.428571 24.857143 60.571429t60.285714 25.142857 60.571429-25.142857 25.142857-60.571429-25.142857-60.285714T324 512q-34.857143 0-60 25.142857t-25.142857 60z m462.857143 202.857143q6.285714-6.285714 6.285714-14.857143t-6.285714-14.857143q-5.714286-5.714286-14.285715-5.714285t-14.857142 5.714285q-23.428571 24-69.142858 35.428572t-91.428571 11.428571-91.428571-11.428571-69.142858-35.428572q-6.285714-5.714286-14.857142-5.714285t-14.285715 5.714285q-6.285714 5.714286-6.285714 14.571429t6.285714 15.142857q24.571429 24.571429 67.714286 38.857143t70 16.857143 52 2.571428 52-2.571428 70-16.857143 67.714286-38.857143z m-1.714286-117.142857q35.428571 0 60.285714-25.142857t24.857143-60.571429q0-34.857143-25.142857-60t-60-25.142857q-35.428571 0-60.571429 24.857143t-25.142857 60.285714 25.142857 60.571429 60.571429 25.142857z" fill="#000000" /></svg>