<svg xmlns="http://www.w3.org/2000/svg" xmlns:xlink="http://www.w3.org/1999/xlink" fill="none" version="1.1" width="16" height="16" viewBox="0 0 16 16"><defs><clipPath id="master_svg0_558_002964"><rect x="0" y="0" width="16" height="16" rx="0"/></clipPath></defs><g clip-path="url(#master_svg0_558_002964)"><g><path d="M5.9529375,1.05615234375Q6.3689375,1.05615234375,6.6649375,1.35215234375Q6.9609375,1.64815234375,6.9609375,2.06415234375L6.9609375,6.06415234375Q6.9609375,6.48015234375,6.6649375,6.77615234375Q6.3689375,7.07215234375,5.9529375,7.07215234375L1.9529375,7.07215234375Q1.5369375,7.07215234375,1.2489375,6.77615234375Q0.9609375,6.48015234375,0.9609375,6.06415234375L0.9609375,2.06415234375Q0.9609375,1.64815234375,1.2489375,1.35215234375Q1.5369375,1.056152462959,1.9529375,1.056152462959L5.9529375,1.05615234375ZM5.9529375,9.07215234375Q6.3689375,9.07215234375,6.6649375,9.36015234375Q6.9609375,9.64815234375,6.9609375,10.06415234375L6.9609375,14.06415234375Q6.9609375,14.48015234375,6.6649375,14.77615234375Q6.3689375,15.07215234375,5.9529375,15.07215234375L1.9529375,15.07215234375Q1.5369375,15.07215234375,1.2489375,14.77615234375Q0.9609375,14.48015234375,0.9609375,14.06415234375L0.9609375,10.06415234375Q0.9609375,9.64815234375,1.2489375,9.36015234375Q1.5369375,9.07215234375,1.9529375,9.07215234375L5.9529375,9.07215234375ZM13.9689375,1.05615234375Q14.3849375,1.05615234375,14.6729375,1.35215234375Q14.9609375,1.64815234375,14.9609375,2.06415234375L14.9609375,6.06415234375Q14.9609375,6.48015234375,14.6729375,6.77615234375Q14.3849375,7.07215234375,13.9689375,7.07215234375L9.9689375,7.07215234375Q9.5529375,7.07215234375,9.2569375,6.77615234375Q8.9609375,6.48015234375,8.9609375,6.06415234375L8.9609375,2.06415234375Q8.9609375,1.64815234375,9.2569375,1.35215234375Q9.5529375,1.056152462959,9.9689375,1.056152462959L13.9689375,1.05615234375ZM13.9689375,9.07215234375Q14.3849375,9.07215234375,14.6729375,9.36015234375Q14.9609375,9.64815234375,14.9609375,10.06415234375L14.9609375,14.06415234375Q14.9609375,14.48015234375,14.6729375,14.77615234375Q14.3849375,15.07215234375,13.9689375,15.07215234375L9.9689375,15.07215234375Q9.5529375,15.07215234375,9.2569375,14.77615234375Q8.9609375,14.48015234375,8.9609375,14.06415234375L8.9609375,10.06415234375Q8.9609375,9.64815234375,9.2569375,9.36015234375Q9.5529375,9.07215234375,9.9689375,9.07215234375L13.9689375,9.07215234375Z" fill="#1F1F1F" fill-opacity="1"/></g></g></svg>