<svg xmlns="http://www.w3.org/2000/svg" xmlns:xlink="http://www.w3.org/1999/xlink" fill="none" version="1.1" width="24" height="24" viewBox="0 0 24 24"><g><g><path d="M5.04285,19.6581L17.3715,19.6581C17.8784,19.6604,18.326,19.3283,18.4696,18.8431L24,0.470098L22.4281,0L17.004,18.0228L5.40765,18.0228L1.81287,6.25186L16.4946,6.25186L16.4946,4.61607L1.14762,4.61607C0.370774,4.61588,-0.181369,5.37036,0.0553583,6.1086L3.94899,18.8559L3.95538,18.876C4.11108,19.3432,4.54939,19.6582,5.04285,19.6581Z" fill="#1F1F1F" fill-opacity="1"/></g><g><path d="M6.9495996875,22.5139503125Q6.949609687500001,22.5869403125,6.9424396875,22.6595703125Q6.9352696875,22.7322003125,6.9209896875000005,22.8037903125Q6.9067196875,22.8753703125,6.8854896875,22.9452103125Q6.864259687500001,23.0150503125,6.8362596875,23.0824803125Q6.8082696875,23.1499103125,6.7737896875,23.2142803125Q6.7393096875000005,23.2786403125,6.6986696875,23.3393303125Q6.6580296875,23.4000103125,6.6116296875,23.4564303125Q6.5652196875,23.5128503125,6.5134996874999995,23.5644603125Q6.4617696875,23.6160603125,6.4052296875,23.6623603125Q6.3486896875,23.7086703125,6.287869687500001,23.7492103125Q6.2270396875,23.7897603125,6.1625296875,23.8241703125Q6.0980196875,23.8585703125,6.0304396874999995,23.8865003125Q5.9628596875,23.9144303125,5.8928696875,23.9356203125Q5.8228696875,23.9568003125,5.7511196875,23.9710403125Q5.6793796875,23.9852803125,5.6065896875,23.992430312499998Q5.5337896875000006,23.9995903125,5.4606396875000005,23.9995903125Q5.3874896875000005,23.9995903125,5.3146996875,23.992430312499998Q5.2418996875,23.9852803125,5.1701596875,23.9710403125Q5.0984196875,23.9568003125,5.0284196875,23.9356203125Q4.9584206875,23.9144303125,4.8908406875,23.8865003125Q4.8232606875,23.8585703125,4.7587496875,23.8241703125Q4.6942396875,23.7897603125,4.6334186875,23.7492103125Q4.5725986875,23.7086703125,4.5160546875000005,23.6623603125Q4.4595096875,23.6160603125,4.4077866875,23.5644603125Q4.3560636875,23.5128503125,4.3096586875,23.4564303125Q4.2632536875,23.4000103125,4.2226146875,23.3393303125Q4.1819766875,23.2786403125,4.1474946875,23.2142803125Q4.1130126875,23.1499103125,4.0850206875,23.0824803125Q4.0570276875,23.0150503125,4.0357938875,22.9452103125Q4.0145601875,22.8753703125,4.0002896875,22.8037903125Q3.9860191875,22.7322003125,3.9788494475,22.6595703125Q3.9716796875,22.5869403125,3.9716796875,22.5139503125Q3.9716796875,22.4409703125,3.9788494475,22.3683403125Q3.9860191875,22.2957003125,4.0002896875,22.2241203125Q4.0145601875,22.1525403125,4.0357938875,22.082700312500002Q4.0570276875,22.0128553125,4.0850206875,21.9454263125Q4.1130126875,21.8779973125,4.1474946875,21.8136313125Q4.1819766875,21.7492643125,4.2226146875,21.6885803125Q4.2632536875,21.6278953125,4.3096586875,21.5714783125Q4.3560636875,21.5150603125,4.4077866875,21.4634523125Q4.4595096875,21.4118443125,4.5160546875000005,21.3655433125Q4.5725986875,21.3192423125,4.6334186875,21.2786943125Q4.6942396875,21.2381463125,4.7587496875,21.2037423125Q4.8232606875,21.1693373125,4.8908406875,21.1414073125Q4.9584206875,21.1134775125,5.0284196875,21.0922912125Q5.0984196875,21.0711049125,5.1701596875,21.0568663125Q5.2418996875,21.0426278125,5.3146996875,21.0354740425Q5.3874896875000005,21.0283203125,5.4606396875000005,21.0283203125Q5.5337896875000006,21.0283203125,5.6065896875,21.0354740425Q5.6793796875,21.0426278125,5.7511196875,21.0568663125Q5.8228696875,21.0711049125,5.8928696875,21.0922912125Q5.9628596875,21.1134775125,6.0304396874999995,21.1414073125Q6.0980196875,21.1693373125,6.1625296875,21.2037423125Q6.2270396875,21.2381463125,6.287869687500001,21.2786943125Q6.3486896875,21.3192423125,6.4052296875,21.3655433125Q6.4617696875,21.4118443125,6.5134996874999995,21.4634523125Q6.5652196875,21.5150603125,6.6116296875,21.5714783125Q6.6580296875,21.6278963125,6.6986696875,21.6885803125Q6.7393096875000005,21.7492643125,6.7737896875,21.8136313125Q6.8082696875,21.8779973125,6.8362596875,21.9454263125Q6.864259687500001,22.0128553125,6.8854896875,22.082700312500002Q6.9067196875,22.1525403125,6.9209896875000005,22.2241203125Q6.9352596875,22.2957003125,6.9424296875,22.3683403125Q6.949609687500001,22.4409703125,6.9495996875,22.5139503125Z" fill="#1F1F1F" fill-opacity="1"/></g><g><path d="M18.9691309375,22.5139503125Q18.9691409375,22.5869403125,18.9619709375,22.6595703125Q18.9548009375,22.7322003125,18.9405209375,22.8037903125Q18.9262509375,22.8753703125,18.905020937499998,22.9452103125Q18.8837909375,23.0150503125,18.8557909375,23.0824803125Q18.8278009375,23.1499103125,18.7933209375,23.2142803125Q18.7588409375,23.2786403125,18.7182009375,23.3393303125Q18.6775609375,23.4000103125,18.6311609375,23.4564303125Q18.5847509375,23.5128503125,18.5330309375,23.5644603125Q18.4813009375,23.6160603125,18.4247609375,23.6623603125Q18.3682209375,23.7086703125,18.3074009375,23.7492103125Q18.2465709375,23.7897603125,18.1820609375,23.8241703125Q18.1175509375,23.8585703125,18.0499709375,23.8865003125Q17.9823909375,23.9144303125,17.9124009375,23.9356203125Q17.8424009375,23.9568003125,17.7706509375,23.9710403125Q17.6989109375,23.9852803125,17.6261209375,23.992430312499998Q17.5533209375,23.9995903125,17.4801709375,23.9995903125Q17.4070209375,23.9995903125,17.3342309375,23.992430312499998Q17.2614309375,23.9852803125,17.1896909375,23.9710403125Q17.1179509375,23.9568003125,17.0479509375,23.9356203125Q16.9779519375,23.9144303125,16.9103719375,23.8865003125Q16.8427919375,23.8585703125,16.7782809375,23.8241703125Q16.7137709375,23.7897603125,16.6529499375,23.7492103125Q16.5921299375,23.7086703125,16.5355859375,23.6623603125Q16.4790409375,23.6160603125,16.4273179375,23.5644603125Q16.3755949375,23.5128503125,16.3291899375,23.4564303125Q16.2827849375,23.4000103125,16.2421459375,23.3393303125Q16.2015079375,23.2786403125,16.1670259375,23.2142803125Q16.1325439375,23.1499103125,16.1045519375,23.0824803125Q16.0765589375,23.0150503125,16.0553251375,22.9452103125Q16.0340914375,22.8753703125,16.0198209375,22.8037903125Q16.0055504375,22.7322003125,15.9983806975,22.6595703125Q15.9912109375,22.5869403125,15.9912109375,22.5139503125Q15.9912109375,22.4409703125,15.9983806975,22.3683403125Q16.0055504375,22.2957003125,16.0198209375,22.2241203125Q16.0340914375,22.1525403125,16.0553251375,22.082700312500002Q16.0765589375,22.0128553125,16.1045519375,21.9454263125Q16.1325439375,21.8779973125,16.1670259375,21.8136313125Q16.2015079375,21.7492643125,16.2421459375,21.6885803125Q16.2827849375,21.6278953125,16.3291899375,21.5714783125Q16.3755949375,21.5150603125,16.4273179375,21.4634523125Q16.4790409375,21.4118443125,16.5355859375,21.3655433125Q16.5921299375,21.3192423125,16.6529499375,21.2786943125Q16.7137709375,21.2381463125,16.7782809375,21.2037423125Q16.8427919375,21.1693373125,16.9103719375,21.1414073125Q16.9779519375,21.1134775125,17.0479509375,21.0922912125Q17.1179509375,21.0711049125,17.1896909375,21.0568663125Q17.2614309375,21.0426278125,17.3342309375,21.0354740425Q17.4070209375,21.0283203125,17.4801709375,21.0283203125Q17.5533209375,21.0283203125,17.6261209375,21.0354740425Q17.6989109375,21.0426278125,17.7706509375,21.0568663125Q17.8424009375,21.0711049125,17.9124009375,21.0922912125Q17.9823909375,21.1134775125,18.0499709375,21.1414073125Q18.1175509375,21.1693373125,18.1820609375,21.2037423125Q18.2465709375,21.2381463125,18.3074009375,21.2786943125Q18.3682209375,21.3192423125,18.4247609375,21.3655433125Q18.4813009375,21.4118443125,18.5330309375,21.4634523125Q18.5847509375,21.5150603125,18.6311609375,21.5714783125Q18.6775609375,21.6278963125,18.7182009375,21.6885803125Q18.7588409375,21.7492643125,18.7933209375,21.8136313125Q18.8278009375,21.8779973125,18.8557909375,21.9454263125Q18.8837909375,22.0128553125,18.905020937499998,22.082700312500002Q18.9262509375,22.1525403125,18.9405209375,22.2241203125Q18.9547909375,22.2957003125,18.9619609375,22.3683403125Q18.9691409375,22.4409703125,18.9691309375,22.5139503125Z" fill="#1F1F1F" fill-opacity="1"/></g></g></svg>