<svg xmlns="http://www.w3.org/2000/svg" xmlns:xlink="http://www.w3.org/1999/xlink" fill="none" version="1.1" width="24.69720458984375" height="24" viewBox="0 0 24.69720458984375 24"><g style="opacity:0.5;"><path d="M24.6972,22.2778L18.583,16.336C19.971,14.618,20.7991,12.4543,20.7991,10.1062C20.7991,4.53367,16.1339,0,10.3996,0C4.66526,0,0,4.53367,0,10.1062C0,15.6788,4.66526,20.2125,10.3996,20.2125C12.8163,20.2125,15.0429,19.4071,16.8102,18.0582L22.9244,24L24.6966,22.2778L24.6972,22.2778ZM10.4002,17.7767C6.04776,17.7767,2.50704,14.3359,2.50704,10.1062C2.50704,5.87658,6.04776,2.43574,10.4002,2.43574C14.7526,2.43574,18.2933,5.87658,18.2933,10.1062C18.2933,14.3359,14.7526,17.7767,10.4002,17.7767Z" fill="#000000" fill-opacity="1" style="mix-blend-mode:passthrough"/></g></svg>