<svg xmlns="http://www.w3.org/2000/svg" xmlns:xlink="http://www.w3.org/1999/xlink" fill="none" version="1.1" width="22.080078125" height="24" viewBox="0 0 22.080078125 24"><g><g><path d="M11.041480625,10.378C13.863570625000001,10.378,16.151340625,8.05482,16.151340625,5.18901C16.151340625,2.3232,13.863570625000001,0,11.041480625,0C8.219390624999999,0,5.93163423467,2.3232,5.931640625,5.18901C5.934816615,8.05348,8.220710625,10.3748,11.041480625,10.378ZM11.041480625,1.63894C12.972480625,1.63884,14.537910625,3.22853,14.537910625,5.18954C14.538010625,7.15045,12.972570625,8.74014,11.041490625,8.74014C9.110490625,8.74024,7.545060625,7.15032,7.545050625,5.18901C7.547360625,3.22912,9.111500625,1.64099,11.041480625,1.63894Z" fill="#000000" fill-opacity="1" style="mix-blend-mode:passthrough"/></g><g><path d="M18.6631,14.2982975C16.7346,12.8097985,14.0276,11.9921875,11.041,11.9921875C8.05451,11.9921875,5.34751,12.8113935,3.41895,14.2982975C1.18206,16.0233575,0,18.585707499999998,0,21.708357499999998L0,23.9995875L1.61132,23.9995875L1.61132,21.708357499999998C1.61132,15.7543675,6.47983,13.6311275,11.039,13.6311275C15.5981,13.6311275,20.4661,15.7527775,20.4661,21.708357499999998L20.4661,23.9995875L22.08,23.9995875L22.08,21.708357499999998C22.08,18.585707499999998,20.8974,16.0233575,18.661,14.2982975" fill="#000000" fill-opacity="1" style="mix-blend-mode:passthrough"/></g></g></svg>