<svg xmlns="http://www.w3.org/2000/svg" xmlns:xlink="http://www.w3.org/1999/xlink" fill="none" version="1.1" width="33.97854232788086" height="34" viewBox="0 0 33.97854232788086 34"><defs><clipPath id="master_svg0_302_10512"><rect x="0" y="0" width="33.97854232788086" height="34" rx="0"/></clipPath></defs><g clip-path="url(#master_svg0_302_10512)"><g><path d="M33.9785,17C33.9785,7.61136,26.372,0,16.9893,0C7.60656,0,0,7.61136,0,17C0,26.3886,7.60656,34,16.9893,34C26.372,34,33.9785,26.3886,33.9785,17ZM12.4269,17L12.4269,13.7468L14.4193,13.7468L14.4193,11.7795C14.4193,9.12591,15.2116,7.21418,18.1152,7.21418L21.5687,7.21418L21.5687,10.4596L19.1376,10.4596C17.919,10.4596,17.6426,11.2695,17.6426,12.1179L17.6426,13.7468L21.3895,13.7468L20.8783,17L17.6426,17L17.6426,26.8121L14.4193,26.8121L14.4193,17L12.4269,17Z" fill="#FFFFFF" fill-opacity="1"/></g></g></svg>