<svg xmlns="http://www.w3.org/2000/svg" xmlns:xlink="http://www.w3.org/1999/xlink" fill="none" version="1.1" width="20" height="19.54541015625" viewBox="0 0 20 19.54541015625"><g><g><path d="M10.8847,19.5165L0.947224,19.5165C0.424459,19.516,0.000724013,19.0995,0,18.5853L0,0.931212C0.000713287,0.41704,0.424454,0.000464187,0.947224,0L15.1982,0C15.7208,0.00070683,16.1442,0.417209,16.1449,0.931212L16.1449,9.75848L14.7909,9.75848L14.7909,1.33222L1.35449,1.33222L1.35449,18.1847L10.8847,18.1847L10.8847,19.5165Z" fill="#1F1F1F" fill-opacity="1"/></g><g><rect x="3.627671241760254" y="3.5529520511627197" width="9.075483322143555" height="1.331781029701233" rx="0" fill="#1F1F1F" fill-opacity="1"/></g><g><rect x="3.603924036026001" y="9.083983421325684" width="5.464093208312988" height="1.331781029701233" rx="0" fill="#1F1F1F" fill-opacity="1"/></g><g><rect x="3.627671241760254" y="14.614588737487793" width="5.417084217071533" height="1.331781029701233" rx="0" fill="#1F1F1F" fill-opacity="1"/></g><g><path d="M14.2817224609375,19.544578287353517L14.2329524609375,19.544578287353517C13.7741124609375,19.527308287353513,13.3743524609375,19.231768287353518,13.229942460937501,18.803078287353514L10.9370165609375,12.092318287353516C10.8061793609375,11.709378287353516,10.9014540609375,11.286674287353515,11.1845704609375,10.993994287353516C11.4676854609375,10.701303387353516,11.8921924609375,10.586670287353515,12.2875524609375,10.696144587353515L19.1922524609375,12.606958287353516C19.6334624609375,12.729148287353516,19.9526424609375,13.105928287353516,19.9951924609375,13.554808287353517C20.0377424609375,14.003688287353516,19.7948824609375,14.431998287353515,19.3842424609375,14.632288287353516L16.572452460937498,16.003398287353516L15.2983624609375,18.889928287353516C15.1247724609375,19.289198287353514,14.7249924609375,19.547418287353516,14.283482460937499,19.545448287353516M12.3710324609375,12.102688287353516L14.3116024609375,17.780248287353515L15.529012460937501,15.025508287353516L18.209002460937498,13.717928287353516L12.3710324609375,12.102688287353516Z" fill="#1F1F1F" fill-opacity="1"/></g></g></svg>