<svg xmlns="http://www.w3.org/2000/svg" xmlns:xlink="http://www.w3.org/1999/xlink" fill="none" version="1.1" width="10" height="10" viewBox="0 0 10 10"><defs><clipPath id="master_svg0_308_10285"><rect x="0" y="0" width="10" height="10" rx="0"/></clipPath></defs><g clip-path="url(#master_svg0_308_10285)"><g><path d="M9.151670330047608,2.142941951751709C9.151670330047608,2.142941951751709,8.314610330047607,2.142941951751709,8.314610330047607,2.142941951751709C8.257700330047609,2.142941951751709,8.204120330047608,2.170843851751709,8.170640330047608,2.216602751751709C8.170640330047608,2.216602751751709,4.999890330047608,6.587131951751709,4.999890330047608,6.587131951751709C4.999890330047608,6.587131951751709,1.8291203300476073,2.216602751751709,1.8291203300476073,2.216602751751709C1.7956403300476074,2.170843851751709,1.7420703300476075,2.142941951751709,1.6851513300476073,2.142941951751709C1.6851513300476073,2.142941951751709,0.8480972300476074,2.142941951751709,0.8480972300476074,2.142941951751709C0.7755527300476074,2.142941951751709,0.7331420300476075,2.225531351751709,0.7755527300476074,2.284682951751709C0.7755527300476074,2.284682951751709,4.710810330047607,7.709911951751709,4.710810330047607,7.709911951751709C4.853670330047607,7.906331951751709,5.146090330047607,7.906331951751709,5.287840330047607,7.709911951751709C5.287840330047607,7.709911951751709,9.223090330047608,2.284682951751709,9.223090330047608,2.284682951751709C9.266620330047607,2.225531351751709,9.224230330047607,2.142941951751709,9.151670330047608,2.142941951751709C9.151670330047608,2.142941951751709,9.151670330047608,2.142941951751709,9.151670330047608,2.142941951751709Z" fill="#000000" fill-opacity="0.8500000238418579"/></g></g></svg>