<svg xmlns="http://www.w3.org/2000/svg" xmlns:xlink="http://www.w3.org/1999/xlink" fill="none" version="1.1" width="10" height="10" viewBox="0 0 10 10"><defs><clipPath id="master_svg0_308_10284"><rect x="0" y="0" width="10" height="10" rx="0"/></clipPath></defs><g clip-path="url(#master_svg0_308_10284)"><g><path d="M9.224356157722474,7.715501951751709C9.224356157722474,7.715501951751709,5.2890861577224735,2.290262951751709,5.2890861577224735,2.290262951751709C5.146246157722473,2.093834751751709,4.853836157722474,2.093834751751709,4.712086157722473,2.290262951751709C4.712086157722473,2.290262951751709,0.7757000577224732,7.715501951751709,0.7757000577224732,7.715501951751709C0.7660129377224731,7.728831951751709,0.7602098577224732,7.744581951751709,0.7589339237224731,7.761021951751709C0.7576579877224732,7.777471951751709,0.7609590977224732,7.793941951751709,0.7684713577224731,7.808611951751709C0.7759835577224732,7.823301951751709,0.7874136577224732,7.835611951751709,0.8014942577224732,7.844191951751709C0.8155747577224731,7.852771951751709,0.8317561577224731,7.857271951751709,0.8482447577224731,7.857221951751709C0.8482447577224731,7.857221951751709,1.6852991577224732,7.857221951751709,1.6852991577224732,7.857221951751709C1.7422191577224733,7.857221951751709,1.7957861577224732,7.829331951751709,1.8292761577224732,7.783581951751709C1.8292761577224732,7.783581951751709,5.000026157722473,3.4130319517517087,5.000026157722473,3.4130319517517087C5.000026157722473,3.4130319517517087,8.170776157722473,7.783581951751709,8.170776157722473,7.783581951751709C8.204276157722473,7.829331951751709,8.257836157722473,7.857221951751709,8.314746157722473,7.857221951751709C8.314746157722473,7.857221951751709,9.151806157722474,7.857221951751709,9.151806157722474,7.857221951751709C9.224356157722474,7.857221951751709,9.266776157722473,7.774631951751709,9.224356157722474,7.715501951751709C9.224356157722474,7.715501951751709,9.224356157722474,7.715501951751709,9.224356157722474,7.715501951751709Z" fill="#000000" fill-opacity="0.8500000238418579"/></g></g></svg>