<svg xmlns="http://www.w3.org/2000/svg" xmlns:xlink="http://www.w3.org/1999/xlink" fill="none" version="1.1" width="33.978515625" height="34" viewBox="0 0 33.978515625 34"><g><g><path d="M25.9596,21.046C25.6028,22.3732,25.1623,23.018,23.9379,23.256Q20.7621,23.4952,17.448,23.4952Q13.7953,23.4952,9.95571,23.256C8.7155,23.103,8.13786,22.287,7.86725,21.046Q7.51047,18.904,7.51047,16.779Q7.51047,14.722,7.86725,12.6662C8.22402,11.3912,8.56259,10.608,9.9545,10.455Q13.4045,10.268,16.8873,10.268Q20.4053,10.268,23.9379,10.455C25.2643,10.608,25.5701,11.3402,25.9596,12.6662Q26.3164,14.8932,26.3164,17.051Q26.3164,19.074,25.9596,21.046ZM16.9893,0C7.5942,0,0,7.60021,0,17C0,26.384,7.61241,34,16.9893,34C26.3673,34,33.9785,26.384,33.9785,17C33.9785,7.60021,26.3673,0,16.9893,0Z" fill="#FFFFFF" fill-opacity="1"/></g><g><path d="M14.914959907531738,20.262566246948243L20.351529907531738,16.74478624694824L14.914959907531738,13.223356246948242L14.914959907531738,20.262566246948243Z" fill="#FFFFFF" fill-opacity="1"/></g></g></svg>