<svg xmlns="http://www.w3.org/2000/svg" xmlns:xlink="http://www.w3.org/1999/xlink" fill="none" version="1.1" width="26.345703125" height="24" viewBox="0 0 26.345703125 24"><g><g><path d="M25.0891,0L7.45278,0C6.75896,0.00096069,6.19674,0.563377,6.19578,1.25744L6.19578,8.608L1.25641,8.608C0.562688,8.60896,0.000640226,9.17146,0,9.86544L0,20.1314C0.000640226,20.8253,0.562773,21.3876,1.25641,21.3882L3.49299,21.3882L4.97143,23.4712C5.47254,24.1763,6.51924,24.1763,7.02037,23.4712L8.49938,21.3882L15.2697,21.3882C15.9632,21.3873,16.5252,20.8251,16.5261,20.1314L16.5261,15.0596L17.8461,15.0596L19.3245,17.1425C19.8259,17.8476,20.8727,17.8476,21.374,17.1425L22.8525,15.0596L25.0891,15.0596C25.7828,15.0587,26.3448,14.4962,26.3455,13.8022L26.3455,1.25745C26.3448,0.56347,25.7828,0.00096069,25.0891,0ZM14.7295,19.5916L7.57166,19.5916L5.99824,21.8109L4.42482,19.5916L1.80245,19.5916L1.80245,10.4053L6.2022,10.4053L6.2022,13.7999C6.20317,14.4939,6.76537,15.0563,7.45919,15.0573L14.736,15.0573L14.7295,19.5916ZM24.5494,13.26L21.9271,13.26L20.3536,15.4794L18.7802,13.26L7.99937,13.26L7.99937,1.79611L24.5564,1.79611L24.5494,13.26Z" fill="#1F1F1F" fill-opacity="1"/></g></g></svg>