<?xml version="1.0" standalone="no"?><!DOCTYPE svg PUBLIC "-//W3C//DTD SVG 1.1//EN" "http://www.w3.org/Graphics/SVG/1.1/DTD/svg11.dtd"><svg class="icon" width="200px" height="200.00px" viewBox="0 0 1024 1024" version="1.1" xmlns="http://www.w3.org/2000/svg"><path d="M146.285714 341.142857q0-61.714286 21.428572-116.285714T226.857143 129.714286t86.857143-70.285715 105.714285-44.571428T534.857143 0q90.285714 0 168 38T829.142857 148.571429t48.571429 164q0 54.857143-10.857143 107.428571t-34.285714 101.142857-57.142858 85.428572-82.857142 58.857142-108 22q-38.857143 0-77.142858-18.285714t-54.857142-50.285714q-5.714286 22.285714-16 64.285714t-13.428572 54.285714-11.714286 40.571429-14.857142 40.571429-18.285715 35.714285-26.285714 44.285715-35.428571 49.428571l-8 2.857143-5.142858-5.714286q-8.571429-89.714286-8.571428-107.428571 0-52.571429 12.285714-118T345.142857 555.428571t29.714286-116q-18.285714-37.142857-18.285714-96.571428 0-47.428571 29.714285-89.142857t75.428572-41.714286q34.857143 0 54.285714 23.142857T535.428571 293.714286q0 37.714286-25.142857 109.142857t-25.142857 106.857143q0 36 25.714286 59.714285t62.285714 23.714286q31.428571 0 58.285714-14.285714t44.857143-38.857143 32-54.285714 21.714286-63.142857 11.428571-63.428572 3.714286-56.857143q0-98.857143-62.571428-154T519.428571 93.142857q-114.285714 0-190.857142 74T252 354.857143q0 25.142857 7.142857 48.571428t15.428572 37.142858 15.428571 26T297.142857 484q0 16-8.571428 41.714286t-21.142858 25.714285q-1.142857 0-9.714285-1.714285-29.142857-8.571429-51.714286-32t-34.857143-54-18.571428-61.714286T146.285714 341.142857z" fill="#000000" /></svg>