<svg xmlns="http://www.w3.org/2000/svg" xmlns:xlink="http://www.w3.org/1999/xlink" fill="none" version="1.1" width="23.8935546875" height="24" viewBox="0 0 23.8935546875 24"><g><g><path d="M22.753,11.2622L21.6952,11.2622L21.6952,9.7526C21.6952,4.37524,17.3221,0,11.9467,0C6.57129,0,2.19766,4.37522,2.19766,9.7526L2.19766,11.2622L1.13982,11.2622C0.510466,11.263,0.000581088,11.7733,0,12.4029L0,18.4348C0.000568175,19.0644,0.510466,19.5747,1.13982,19.5756L4.94222,19.5756C5.57157,19.5747,6.08147,19.0644,6.08204,18.4348L6.08204,12.4029C6.08147,11.7733,5.57157,11.263,4.94222,11.2622L3.82672,11.2622L3.82672,9.7526C3.82672,5.2742,7.46886,1.63126,11.9451,1.63126C16.4213,1.63126,20.0635,5.2742,20.0635,9.7526L20.0635,11.2622L18.9485,11.2622C18.319,11.2627,17.8087,11.7731,17.8082,12.4029L17.8082,18.4348C17.8087,19.0646,18.3189,19.575,18.9485,19.5756L20.0867,19.5756L20.0867,21.5576L13.6017,21.5576L13.6017,20.9904C13.6017,20.8151,13.4596,20.6729,13.2843,20.6729L10.5927,20.6729C10.4174,20.6729,10.2753,20.8151,10.2753,20.9904L10.2753,23.6825C10.2753,23.8579,10.4174,24,10.5927,24L13.2843,24C13.4596,24,13.6017,23.8579,13.6017,23.6825L13.6017,23.1867L20.5797,23.1867C21.2082,23.1862,21.718,22.6774,21.7201,22.0486L21.7201,19.5766L22.753,19.5766C23.3826,19.5761,23.8928,19.0657,23.8934,18.4359L23.8934,12.404C23.8928,11.7742,23.3826,11.2638,22.753,11.2632M4.45245,17.9438L1.63066,17.9438L1.63066,12.895L4.45245,12.895L4.45245,17.9438ZM22.2606,17.9438L19.4388,17.9438L19.4388,12.895L22.2649,12.895L22.2606,17.9438Z" fill="#1F1F1F" fill-opacity="1"/></g></g></svg>