<svg xmlns="http://www.w3.org/2000/svg" xmlns:xlink="http://www.w3.org/1999/xlink" fill="none" version="1.1" width="33.97854232788086" height="34" viewBox="0 0 33.97854232788086 34"><defs><clipPath id="master_svg0_302_10509"><rect x="0" y="0" width="33.97854232788086" height="34" rx="0"/></clipPath></defs><g clip-path="url(#master_svg0_302_10509)"><g><path d="M16.9893,34C7.6061,34,0,26.3891,0,17C0,7.6109,7.6061,0,16.9893,0C26.3724,0,33.9785,7.6109,33.9785,17C33.9785,26.3891,26.3724,34,16.9893,34ZM12.418,24.4913L12.418,13.1943L9.02017,13.1943L9.02017,24.4913L12.418,24.4913ZM10.7191,8.27333C9.62329,8.27333,8.90804,9.0355,8.93013,10.0527C8.90747,11.0228,9.62329,11.8082,10.697,11.8082C11.8143,11.8082,12.5302,11.0228,12.5302,10.0521C12.5075,9.0355,11.8143,8.27333,10.7191,8.27333ZM15.1459,24.4913L18.5438,24.4913L18.5438,17.9764C18.5438,17.6534,18.5891,17.3066,18.6786,17.098C18.9017,16.452,19.4606,15.7817,20.4002,15.7817C21.629,15.7817,22.1217,16.775,22.1217,18.2308L22.1217,24.4913L25.5196,24.4913L25.5196,17.7916C25.5196,14.4653,23.8433,12.9398,21.607,12.9398C19.7965,12.9398,18.6786,14.0261,18.2312,14.7418L18.1638,14.7418L18.0075,13.1943L15.0565,13.1943C15.1012,14.1876,15.1459,15.389,15.1459,16.7983L15.1459,24.4913Z" fill="#FFFFFF" fill-opacity="1"/></g></g></svg>