<svg xmlns="http://www.w3.org/2000/svg" xmlns:xlink="http://www.w3.org/1999/xlink" fill="none" version="1.1" width="20" height="18.219457626342773" viewBox="0 0 20 18.219457626342773"><g><path d="M19.0462,0L5.65773,0C5.13102,0.000729302,4.70422,0.427684,4.70349,0.954581L4.70349,6.53471L0.953795,6.53471C0.427161,6.53544,0.000486024,6.96246,0,7.48929L0,15.2826C0.000486024,15.8094,0.427226,16.2363,0.953795,16.2368L2.65168,16.2368L3.77403,17.818C4.15445,18.3533,4.94904,18.3533,5.32947,17.818L6.45225,16.2368L11.5919,16.2368C12.1184,16.236,12.545,15.8093,12.5457,15.2826L12.5457,11.4324L13.5477,11.4324L14.6701,13.0137C15.0507,13.5489,15.8454,13.5489,16.226,13.0137L17.3483,11.4324L19.0462,11.4324C19.5728,11.4317,19.9995,11.0047,20,10.4778L20,0.954586C19.9995,0.427755,19.5728,0.000729302,19.0462,0ZM11.1818,14.8728L5.74798,14.8728L4.55353,16.5576L3.35907,14.8728L1.36832,14.8728L1.36832,7.8991L4.70836,7.8991L4.70836,10.4761C4.7091,11.003,5.13589,11.4299,5.6626,11.4307L11.1867,11.4307L11.1818,14.8728ZM18.6365,10.0663L16.6458,10.0663L15.4513,11.7511L14.2569,10.0663L6.07268,10.0663L6.07268,1.3635L18.6419,1.3635L18.6365,10.0663Z" fill="#FFFFFF" fill-opacity="1"/></g></svg>