<svg xmlns="http://www.w3.org/2000/svg" xmlns:xlink="http://www.w3.org/1999/xlink" fill="none" version="1.1" width="32" height="32" viewBox="0 0 32 32"><defs><clipPath id="master_svg0_558_003033"><rect x="0" y="0" width="32" height="32" rx="0"/></clipPath></defs><g clip-path="url(#master_svg0_558_003033)"><g><g><g><path d="M27.006690979003906,18.9833984375L22.870390979003908,18.9833984375C22.442190979003907,17.8155154375,21.318090979003905,16.9833984375,20.004290979003905,16.9833984375C18.690390979003908,16.9833984375,17.566290979003906,17.8155154375,17.138090979003906,18.9833984375L5.006690979003906,18.9833984375L5.006690979003906,20.9833984375L17.103990979003907,20.9833984375C17.503090979003908,22.2048084375,18.651490979003906,23.0855884375,20.004290979003905,23.0855884375C21.357090979003907,23.0855884375,22.505490979003905,22.199948437499998,22.904490979003906,20.9833984375L27.001790979003907,20.9833984375L27.001790979003907,18.9833984375L27.006690979003906,18.9833984375ZM20.004290979003905,21.0855884375C19.425190979003908,21.0855884375,18.953190979003907,20.6135684375,18.953190979003907,20.0344884375C18.953190979003907,19.4554184375,19.425190979003908,18.9833984375,20.004290979003905,18.9833984375C20.583290979003905,18.9833984375,21.055390979003906,19.4554184375,21.055390979003906,20.0344884375C21.055390979003906,20.6135684375,20.583290979003905,21.0855884375,20.004290979003905,21.0855884375Z" fill="#000000" fill-opacity="1" style="mix-blend-mode:passthrough"/></g><g><path d="M27.006673791503907,10.98272921875L14.889923791503906,10.98272921875C14.476293791503906,9.79051321875,13.337613791503907,8.92919921875,12.009143791503906,8.92919921875C10.680673791503907,8.92919921875,9.541983791503906,9.79051321875,9.128363791503906,10.98272921875L5.011573791503906,10.98272921875L5.011573791503906,12.98272921875L9.128363791503906,12.98272921875C9.541983791503906,14.17493921875,10.680673791503907,15.03625921875,12.009143791503906,15.03625921875C13.337613791503907,15.03625921875,14.476293791503906,14.17493921875,14.894783791503906,12.98272921875L27.011573791503906,12.98272921875L27.011573791503906,10.98272921875L27.006673791503907,10.98272921875ZM12.004273791503905,13.03138921875C11.425203791503908,13.03138921875,10.953183791503907,12.55936921875,10.953183791503907,11.98029921875C10.953183791503907,11.40121921875,11.425203791503908,10.92919921875,12.004273791503905,10.92919921875C12.583353791503907,10.92919921875,13.055373791503905,11.40121921875,13.055373791503905,11.98029921875C13.055373791503905,12.55936921875,12.583353791503907,13.03138921875,12.004273791503905,13.03138921875Z" fill="#000000" fill-opacity="1" style="mix-blend-mode:passthrough"/></g></g></g></g></svg>