<svg xmlns="http://www.w3.org/2000/svg" xmlns:xlink="http://www.w3.org/1999/xlink" fill="none" version="1.1" width="33.97854232788086" height="34" viewBox="0 0 33.97854232788086 34"><defs><clipPath id="master_svg0_302_10507"><rect x="0" y="0" width="33.97854232788086" height="34" rx="0"/></clipPath></defs><g clip-path="url(#master_svg0_302_10507)"><g><path d="M16.9893,0C7.57983,0,0,7.58462,0,17C0,26.4154,7.57983,34,16.9893,34C26.3987,34,33.9785,26.4154,33.9785,17C33.9785,7.58462,26.3987,0,16.9893,0ZM25.2225,12.1615C25.0918,12.2923,25.0918,12.4231,24.9612,12.4231C24.6998,12.6846,24.4384,12.8154,24.177,12.9462C24.0464,12.9462,24.0464,13.0769,24.0464,13.2077C24.177,14.6462,23.9157,16.0846,23.3929,17.5231C22.4781,20.0077,20.5178,21.9692,18.1654,23.1462C16.2051,24.3231,13.8528,24.7154,11.7618,24.1923C10.7163,24.0615,9.8015,23.6692,9.01738,23.1462L8.88669,23.0154C8.88669,22.8846,9.01738,22.7538,9.14807,22.7538C9.8015,22.7538,10.4549,22.6231,11.1084,22.3615C11.7618,22.1,12.4152,21.7077,12.938,21.3154L13.0687,21.1846C13.0687,21.0538,13.0687,20.9231,12.938,20.9231C12.4152,20.7923,12.0232,20.5308,11.6311,20.2692C11.1084,20.0077,10.7163,19.4846,10.4549,18.9615L10.4549,18.8308C10.4549,18.7,10.5856,18.5692,10.7163,18.5692L11.1084,18.5692C11.2391,18.5692,11.2391,18.5692,11.2391,18.4385C11.3697,18.3077,11.2391,18.1769,11.1084,18.0461C10.5856,17.7846,10.1936,17.3923,9.8015,17C9.27875,16.4769,9.01738,15.8231,9.01738,15.1692L9.01738,15.0385Q9.01738,14.9077,9.27875,14.9077C9.40944,14.9077,9.54013,15.0385,9.67081,15.0385L9.93219,15.0385C10.0629,15.0385,10.0629,15.0385,10.1936,14.9077C10.3242,14.7769,10.3242,14.6461,10.1936,14.5154C9.67081,13.9923,9.27875,13.3385,9.14807,12.5538C9.01738,11.9,9.14807,11.1154,9.40944,10.4615L9.40944,10.3308C9.14807,10.4615,9.27875,10.4615,9.40944,10.5923C10.3242,11.5077,11.2391,12.2923,12.4152,12.9461C13.7221,13.6,15.1597,13.9923,16.5972,13.9923C16.7279,13.9923,16.8586,13.8615,16.8586,13.7308C16.8586,12.9461,17.12,10.3308,19.4723,9.67692C20.6485,9.28461,22.0861,9.54615,23.0009,10.5923Q23.1315,10.7231,23.2622,10.7231C23.5236,10.7231,23.785,10.5923,24.177,10.5923C24.4384,10.4615,24.6998,10.4615,24.9612,10.3308L25.2225,10.3308C25.3532,10.3308,25.3532,10.5923,25.3532,10.7231C25.2225,10.9846,24.9612,11.2461,24.6998,11.5077L24.5691,11.6385C24.4384,11.6385,24.4384,11.7692,24.4384,11.9C24.4384,12.0308,24.5691,12.1615,24.6998,12.1615C24.8305,12.1615,24.9612,12.1615,25.2225,12.0308L25.4839,12.0308C25.3532,11.9,25.3532,12.1615,25.2225,12.1615Z" fill="#FFFFFF" fill-opacity="1"/></g></g></svg>