<svg xmlns="http://www.w3.org/2000/svg" xmlns:xlink="http://www.w3.org/1999/xlink" fill="none" version="1.1" width="15" height="15" viewBox="0 0 15 15"><g><g><path d="M3.15178,12.2863L10.8572,12.2863C11.174,12.2878,11.4537,12.0802,11.5435,11.777L15,0.293811L14.0176,0L10.6275,11.2643L3.37978,11.2643L1.13304,3.90741L10.3091,3.90741L10.3091,2.88505L0.717263,2.88505C0.231733,2.88493,-0.113355,3.35647,0.034599,3.81788L2.46812,11.7849L2.47211,11.7975C2.56943,12.0895,2.84337,12.2864,3.15178,12.2863Z" fill="#1F1F1F" fill-opacity="1"/></g><g><path d="M4.343289519500733,14.071479641052246Q4.343289519500733,14.162928641052247,4.325409519500733,14.252628641052246Q4.307529519500733,14.342318641052247,4.272449519500732,14.426808641052245Q4.237379519500733,14.511298641052246,4.186459519500732,14.587338641052247Q4.135539519500733,14.663378641052246,4.070729519500732,14.728038641052246Q4.005919519500733,14.792708641052247,3.929709519500732,14.843518641052245Q3.8534995195007324,14.894328641052246,3.7688195195007324,14.929318641052246Q3.6841395195007323,14.964318641052246,3.594239519500732,14.982158641052246Q3.5043495195007326,14.999998641052246,3.4126905195007327,14.999998641052246Q3.3210345195007323,14.999998641052246,3.2311395195007324,14.982158641052246Q3.1412445195007326,14.964318641052246,3.056565519500732,14.929318641052246Q2.9718855195007325,14.894328641052246,2.8956765195007326,14.843518641052245Q2.8194675195007326,14.792708641052247,2.7546565195007324,14.728038641052246Q2.6898455195007323,14.663378641052246,2.6389245195007325,14.587338641052247Q2.5880025195007326,14.511298641052246,2.5529273195007325,14.426808641052245Q2.5178520195007326,14.342318641052247,2.4999707195007326,14.252628641052246Q2.4820895195007324,14.162928641052247,2.4820895195007324,14.071479641052246Q2.4820895195007324,13.980028641052247,2.4999707195007326,13.890333641052246Q2.5178520195007326,13.800639641052246,2.5529273195007325,13.716149641052246Q2.5880025195007326,13.631659641052247,2.6389245195007325,13.555620641052245Q2.6898455195007323,13.479581641052246,2.7546565195007324,13.414915641052247Q2.8194675195007326,13.350250641052247,2.8956765195007326,13.299442641052247Q2.9718855195007325,13.248634641052247,3.056565519500732,13.213638041052246Q3.1412445195007326,13.178641141052246,3.2311395195007324,13.160799941052247Q3.3210345195007323,13.142958641052246,3.4126905195007327,13.142958641052246Q3.5043495195007326,13.142958641052246,3.594239519500732,13.160799941052247Q3.6841395195007323,13.178641141052246,3.7688195195007324,13.213638041052246Q3.8534995195007324,13.248634641052247,3.929709519500732,13.299442641052247Q4.005919519500733,13.350250641052247,4.070729519500732,13.414915641052247Q4.135539519500733,13.479581641052246,4.186459519500732,13.555620641052245Q4.237379519500733,13.631659641052247,4.272459519500733,13.716149641052246Q4.307529519500733,13.800639641052246,4.325409519500733,13.890334641052245Q4.343289519500733,13.980028641052247,4.343289519500733,14.071479641052246Z" fill="#1F1F1F" fill-opacity="1"/></g><g><path d="M11.85587945098877,14.071479641052246Q11.85587945098877,14.162928641052247,11.83799945098877,14.252628641052246Q11.82011945098877,14.342318641052247,11.78503945098877,14.426808641052245Q11.74996945098877,14.511298641052246,11.69904945098877,14.587338641052247Q11.648129450988769,14.663378641052246,11.58331945098877,14.728038641052246Q11.51850945098877,14.792708641052247,11.44229945098877,14.843518641052245Q11.36608945098877,14.894328641052246,11.28140945098877,14.929318641052246Q11.19672945098877,14.964318641052246,11.10682945098877,14.982158641052246Q11.016939450988769,14.999998641052246,10.925280450988769,14.999998641052246Q10.83362445098877,14.999998641052246,10.74372945098877,14.982158641052246Q10.65383445098877,14.964318641052246,10.56915545098877,14.929318641052246Q10.48447545098877,14.894328641052246,10.40826645098877,14.843518641052245Q10.332057450988769,14.792708641052247,10.26724645098877,14.728038641052246Q10.20243545098877,14.663378641052246,10.151514450988769,14.587338641052247Q10.100592450988769,14.511298641052246,10.06551725098877,14.426808641052245Q10.03044195098877,14.342318641052247,10.01256065098877,14.252628641052246Q9.99467945098877,14.162928641052247,9.99467945098877,14.071479641052246Q9.99467945098877,13.980028641052247,10.01256065098877,13.890333641052246Q10.03044195098877,13.800639641052246,10.06551725098877,13.716149641052246Q10.100592450988769,13.631659641052247,10.151514450988769,13.555620641052245Q10.20243545098877,13.479581641052246,10.26724645098877,13.414915641052247Q10.332057450988769,13.350250641052247,10.40826645098877,13.299442641052247Q10.48447545098877,13.248634641052247,10.56915545098877,13.213638041052246Q10.65383445098877,13.178641141052246,10.74372945098877,13.160799941052247Q10.83362445098877,13.142958641052246,10.925280450988769,13.142958641052246Q11.016939450988769,13.142958641052246,11.10682945098877,13.160799941052247Q11.19672945098877,13.178641141052246,11.28140945098877,13.213638041052246Q11.36608945098877,13.248634641052247,11.44229945098877,13.299442641052247Q11.51850945098877,13.350250641052247,11.58331945098877,13.414915641052247Q11.648129450988769,13.479581641052246,11.69904945098877,13.555620641052245Q11.74996945098877,13.631659641052247,11.785049450988769,13.716149641052246Q11.82011945098877,13.800639641052246,11.83799945098877,13.890334641052245Q11.85587945098877,13.980028641052247,11.85587945098877,14.071479641052246Z" fill="#1F1F1F" fill-opacity="1"/></g></g></svg>