<svg xmlns="http://www.w3.org/2000/svg" xmlns:xlink="http://www.w3.org/1999/xlink" fill="none" version="1.1" width="17" height="17" viewBox="0 0 17 17"><defs><clipPath id="master_svg0_558_002966"><rect x="0" y="0" width="17" height="17" rx="0"/></clipPath></defs><g clip-path="url(#master_svg0_558_002966)"><g><path d="M4.78125,2.65625L15.40625,2.65625L15.40625,4.250005L4.78125,4.250005L4.78125,2.65625ZM4.78125,7.703125L15.40625,7.703125L15.40625,9.296875L4.78125,9.296875L4.78125,7.703125ZM4.78125,12.750025L15.40625,12.750025L15.40625,14.343725L4.78125,14.343725L4.78125,12.750025ZM1.59375,3.453125C1.59375,4.039925,2.069447,4.515625,2.65625,4.515625C3.24305,4.515625,3.71875,4.039925,3.71875,3.453125C3.71875,2.866322,3.24305,2.390625,2.65625,2.390625C2.069447,2.390625,1.59375,2.866322,1.59375,3.453125ZM1.59375,8.500005C1.59375,9.086805,2.069447,9.562505,2.65625,9.562505C3.24305,9.562505,3.71875,9.086805,3.71875,8.500005C3.71875,7.913195,3.24305,7.437505,2.65625,7.437505C2.069447,7.437505,1.59375,7.913195,1.59375,8.500005ZM1.59375,13.546825C1.59375,14.133725,2.069447,14.609425,2.65625,14.609425C3.24305,14.609425,3.71875,14.133725,3.71875,13.546825C3.71875,12.960025,3.24305,12.484425,2.65625,12.484425C2.069447,12.484425,1.59375,12.960025,1.59375,13.546825Z" fill="#7F7E75" fill-opacity="1"/></g></g></svg>