<svg xmlns="http://www.w3.org/2000/svg" xmlns:xlink="http://www.w3.org/1999/xlink" fill="none" version="1.1" width="20" height="20" viewBox="0 0 20 20"><defs><clipPath id="master_svg0_558_003507"><rect x="0" y="0" width="20" height="20" rx="0"/></clipPath></defs><g clip-path="url(#master_svg0_558_003507)"><g><path d="M9.99870125,16.6663078125C6.33203125,16.6663078125,3.33203125,13.6663078125,3.33203125,9.9996778125C3.33203125,6.3330078125,6.33203125,3.3330078125,9.99870125,3.3330078125C13.66533125,3.3330078125,16.66533125,6.3330078125,16.66533125,9.9996778125C16.66533125,13.6663078125,13.66533125,16.6663078125,9.99870125,16.6663078125ZM9.99870125,14.9997078125C12.74870125,14.9997078125,14.99873125,12.7496778125,14.99873125,9.9996778125C14.99873125,7.2496778125,12.74870125,4.9996778125,9.99870125,4.9996778125C7.24870125,4.9996778125,4.99870125,7.2496778125,4.99870125,9.9996778125C4.99870125,12.7496778125,7.24870125,14.9997078125,9.99870125,14.9997078125Z" fill="#E2DED6" fill-opacity="1"/></g><g><path d="M9.165365219116211,10.83301178161621L10.83203521911621,10.83301178161621L10.83203521911621,6.666341781616211L9.165365219116211,6.666341781616211L9.165365219116211,10.83301178161621ZM9.165365219116211,13.33301178161621L10.83203521911621,13.33301178161621L10.83203521911621,11.666341781616211L9.165365219116211,11.666341781616211L9.165365219116211,13.33301178161621Z" fill="#7F7E75" fill-opacity="1"/></g></g></svg>